<svg xmlns="http://www.w3.org/2000/svg" width="30" height="30" viewBox="0 0 30 30">
  <style>
    path { fill: #000; }
    @media (prefers-color-scheme: dark) {
      path { fill: #fff; }
    }
  </style>
  <path fill-rule="evenodd" d="M28.86 15.00 A13.86 13.86 0 1 1 1.14 15.00 A13.86 13.86 0 1 1 28.86 15.00 Z M27.33 15.00 A12.33 12.33 0 1 0 2.67 15.00 A12.33 12.33 0 1 0 27.33 15.00 Z M14.37 5.29 C14.44 5.29 14.80 5.27 15.00 5.29 C15.20 5.30 15.85 5.35 16.09 5.39 C16.33 5.43 16.85 5.54 17.06 5.60 C17.26 5.65 17.63 5.77 17.82 5.83 C18.00 5.90 18.44 6.07 18.63 6.16 C18.83 6.25 19.27 6.48 19.47 6.59 C19.66 6.70 20.15 7.01 20.34 7.14 C20.52 7.27 20.92 7.58 21.06 7.69 C21.20 7.81 21.40 7.99 21.53 8.13 C21.67 8.27 22.09 8.74 22.23 8.91 C22.37 9.09 22.61 9.42 22.73 9.61 C22.86 9.80 23.17 10.34 23.27 10.54 C23.37 10.73 23.54 11.09 23.62 11.29 C23.69 11.48 23.87 11.97 23.93 12.17 C24.00 12.37 24.12 12.81 24.16 13.04 C24.20 13.26 24.29 13.91 24.32 14.11 C24.34 14.32 24.37 14.66 24.37 14.79 C24.38 14.93 24.38 15.13 24.37 15.26 C24.37 15.39 24.34 15.75 24.32 15.94 C24.29 16.14 24.20 16.73 24.16 16.95 C24.11 17.16 24.00 17.58 23.93 17.78 C23.87 17.97 23.69 18.44 23.60 18.65 C23.52 18.85 23.29 19.31 23.18 19.52 C23.06 19.72 22.75 20.22 22.63 20.40 C22.50 20.59 22.22 20.95 22.11 21.09 C21.99 21.23 21.79 21.46 21.64 21.62 C21.49 21.77 20.98 22.25 20.80 22.40 C20.61 22.56 20.26 22.83 20.08 22.95 C19.89 23.08 19.39 23.40 19.20 23.50 C19.02 23.61 18.66 23.77 18.48 23.85 C18.30 23.92 17.85 24.09 17.65 24.15 C17.45 24.21 16.94 24.34 16.75 24.38 C16.57 24.42 16.28 24.46 16.10 24.48 C15.91 24.50 15.34 24.54 15.14 24.55 C14.94 24.56 14.53 24.56 14.38 24.55 C14.24 24.54 13.95 24.51 13.86 24.49 C13.76 24.46 13.61 24.40 13.57 24.35 C13.52 24.31 13.50 24.17 13.48 24.10 C13.47 24.03 13.46 24.15 13.46 23.76 C13.46 23.37 13.46 21.13 13.47 20.75 C13.49 20.38 13.56 20.59 13.59 20.56 C13.62 20.53 13.55 20.50 13.75 20.48 C13.95 20.47 15.01 20.45 15.29 20.43 C15.56 20.42 15.95 20.37 16.12 20.34 C16.30 20.31 16.63 20.25 16.78 20.21 C16.93 20.17 17.25 20.07 17.40 20.01 C17.55 19.94 17.91 19.77 18.06 19.68 C18.21 19.58 18.58 19.30 18.69 19.20 C18.80 19.11 18.95 18.91 19.02 18.83 C19.08 18.75 19.17 18.62 19.24 18.51 C19.30 18.39 19.51 17.99 19.57 17.84 C19.63 17.69 19.73 17.36 19.77 17.21 C19.80 17.05 19.86 16.67 19.87 16.49 C19.89 16.31 19.89 16.12 19.89 15.68 C19.89 15.25 19.88 13.14 19.87 12.73 C19.86 12.32 19.82 12.30 19.80 12.18 C19.78 12.06 19.71 11.79 19.68 11.69 C19.65 11.60 19.61 11.47 19.57 11.37 C19.53 11.27 19.39 10.95 19.32 10.82 C19.25 10.70 19.07 10.40 19.00 10.31 C18.94 10.21 18.84 10.07 18.75 9.98 C18.67 9.89 18.39 9.64 18.27 9.55 C18.15 9.46 17.82 9.27 17.73 9.22 C17.63 9.16 17.57 9.14 17.47 9.10 C17.37 9.07 16.97 8.92 16.86 8.88 C16.74 8.85 16.60 8.82 16.47 8.80 C16.34 8.77 15.89 8.71 15.74 8.69 C15.58 8.67 16.06 8.66 15.15 8.65 C14.24 8.64 8.81 8.60 7.96 8.59 C7.11 8.59 7.88 8.58 7.87 8.58 C7.85 8.57 7.81 8.56 7.83 8.52 C7.84 8.48 7.95 8.29 8.00 8.22 C8.05 8.14 8.16 8.00 8.25 7.90 C8.35 7.80 8.67 7.47 8.80 7.36 C8.93 7.25 9.19 7.04 9.36 6.92 C9.54 6.81 10.09 6.48 10.31 6.37 C10.54 6.25 11.06 6.03 11.29 5.94 C11.53 5.85 12.13 5.67 12.37 5.61 C12.61 5.54 13.13 5.43 13.37 5.39 C13.60 5.35 14.24 5.30 14.36 5.29 C14.48 5.28 14.29 5.29 14.37 5.29 Z M13.97 12.31 C14.05 12.30 14.48 12.29 14.63 12.30 C14.78 12.31 15.14 12.35 15.25 12.38 C15.36 12.40 15.50 12.47 15.56 12.49 C15.62 12.52 15.71 12.57 15.76 12.61 C15.80 12.65 15.92 12.79 15.96 12.85 C15.99 12.91 16.05 13.02 16.08 13.14 C16.10 13.26 16.16 13.62 16.17 13.88 C16.18 14.14 16.15 15.13 16.14 15.35 C16.13 15.58 16.10 15.72 16.08 15.81 C16.06 15.90 15.99 16.05 15.96 16.12 C15.93 16.19 15.83 16.34 15.79 16.39 C15.75 16.44 15.65 16.50 15.61 16.53 C15.56 16.56 15.48 16.61 15.40 16.63 C15.33 16.65 15.31 16.69 14.97 16.70 C14.64 16.72 13.18 16.75 12.54 16.76 C11.90 16.76 9.87 16.74 9.50 16.74 C9.14 16.75 9.41 16.76 9.39 16.78 C9.37 16.79 9.36 16.21 9.36 16.87 C9.36 17.54 9.36 21.80 9.36 22.46 C9.36 23.13 9.34 22.57 9.32 22.59 C9.30 22.61 9.22 22.65 9.18 22.66 C9.14 22.66 9.04 22.67 9.00 22.65 C8.96 22.63 8.97 22.66 8.82 22.51 C8.67 22.37 7.88 21.62 7.68 21.41 C7.48 21.21 7.27 20.96 7.13 20.77 C6.99 20.59 6.59 20.01 6.48 19.83 C6.37 19.66 6.26 19.45 6.17 19.27 C6.08 19.09 5.79 18.49 5.71 18.30 C5.63 18.12 5.54 17.85 5.49 17.69 C5.44 17.53 5.32 17.08 5.28 16.93 C5.24 16.78 5.20 16.56 5.17 16.39 C5.14 16.22 5.07 15.77 5.05 15.49 C5.04 15.21 5.04 14.24 5.05 13.96 C5.07 13.69 5.14 13.29 5.17 13.15 C5.19 13.00 5.24 12.83 5.27 12.75 C5.31 12.66 5.42 12.45 5.46 12.40 C5.50 12.35 4.60 12.35 5.59 12.34 C6.59 12.33 12.98 12.31 13.96 12.31 C14.94 12.30 13.90 12.31 13.97 12.31 Z"/>
</svg>
